<svg xmlns="http://www.w3.org/2000/svg" xmlns:xlink="http://www.w3.org/1999/xlink" width="2000" zoomAndPan="magnify" viewBox="0 0 1500 1499.999933" height="2000" preserveAspectRatio="xMidYMid meet" version="1.0"><defs><g/><clipPath id="39e1ec8a31"><rect x="0" width="806" y="0" height="171"/></clipPath><clipPath id="4ade0a43c0"><rect x="0" width="489" y="0" height="112"/></clipPath><clipPath id="05bc023dee"><path d="M 830 373.242188 L 907.496094 373.242188 L 907.496094 566 L 830 566 Z M 830 373.242188 " clip-rule="nonzero"/></clipPath><clipPath id="4f0d685f59"><path d="M 592.496094 491 L 907.496094 491 L 907.496094 802.992188 L 592.496094 802.992188 Z M 592.496094 491 " clip-rule="nonzero"/></clipPath></defs><g transform="matrix(1, 0, 0, 1, 369, 852)"><g clip-path="url(#39e1ec8a31)"><g fill="#ffffff" fill-opacity="1"><g transform="translate(0.637615, 139.001797)"><g><path d="M 65.359375 -76.234375 L 44.109375 -76.234375 L 44.109375 -84.375 C 44.109375 -85.226562 43.8125 -85.972656 43.21875 -86.609375 C 42.632812 -87.253906 41.921875 -87.578125 41.078125 -87.578125 L 32.28125 -87.578125 C 31.425781 -87.578125 30.707031 -87.253906 30.125 -86.609375 C 29.539062 -85.972656 29.25 -85.226562 29.25 -84.375 L 29.25 -66 C 29.25 -65.144531 29.539062 -64.398438 30.125 -63.765625 C 30.707031 -63.128906 31.425781 -62.8125 32.28125 -62.8125 L 46.671875 -62.8125 C 59.878906 -62.59375 66.484375 -55.5625 66.484375 -41.71875 L 66.484375 -19.5 C 66.484375 -5.4375 59.878906 1.59375 46.671875 1.59375 L 27.8125 1.59375 C 14.59375 1.59375 7.984375 -5.4375 7.984375 -19.5 L 7.984375 -30.203125 L 29.25 -30.203125 L 29.25 -18.703125 C 29.25 -17.847656 29.539062 -17.097656 30.125 -16.453125 C 30.707031 -15.816406 31.425781 -15.5 32.28125 -15.5 L 42.1875 -15.5 C 43.039062 -15.5 43.757812 -15.816406 44.34375 -16.453125 C 44.9375 -17.097656 45.234375 -17.847656 45.234375 -18.703125 L 45.234375 -39 C 45.234375 -39.84375 44.9375 -40.582031 44.34375 -41.21875 C 43.757812 -41.863281 43.039062 -42.1875 42.1875 -42.1875 L 27.8125 -42.1875 C 14.59375 -42.1875 7.984375 -49.21875 7.984375 -63.28125 L 7.984375 -83.90625 C 7.984375 -97.96875 14.59375 -105 27.8125 -105 L 45.546875 -105 C 58.753906 -105 65.359375 -97.96875 65.359375 -83.90625 Z M 65.359375 -76.234375 "/></g></g></g><g fill="#ffffff" fill-opacity="1"><g transform="translate(114.900461, 139.001797)"><g><path d="M 68.875 -83.90625 L 68.875 -19.5 C 68.875 -5.4375 62.269531 1.59375 49.0625 1.59375 L 27.8125 1.59375 C 14.59375 1.59375 7.984375 -5.4375 7.984375 -19.5 L 7.984375 -83.90625 C 7.984375 -97.96875 14.59375 -105 27.8125 -105 L 49.0625 -105 C 62.269531 -105 68.875 -97.96875 68.875 -83.90625 Z M 46.5 -16.9375 L 46.5 -86.625 C 46.5 -87.46875 46.207031 -88.207031 45.625 -88.84375 C 45.039062 -89.488281 44.320312 -89.8125 43.46875 -89.8125 L 33.40625 -89.8125 C 32.550781 -89.8125 31.828125 -89.488281 31.234375 -88.84375 C 30.648438 -88.207031 30.359375 -87.46875 30.359375 -86.625 L 30.359375 -16.9375 C 30.359375 -16.082031 30.648438 -15.335938 31.234375 -14.703125 C 31.828125 -14.066406 32.550781 -13.75 33.40625 -13.75 L 43.46875 -13.75 C 44.320312 -13.75 45.039062 -14.066406 45.625 -14.703125 C 46.207031 -15.335938 46.5 -16.082031 46.5 -16.9375 Z M 46.5 -16.9375 "/></g></g></g><g fill="#ffffff" fill-opacity="1"><g transform="translate(233.318009, 139.001797)"><g><path d="M 30.359375 -42.34375 L 30.359375 0 L 7.984375 0 L 7.984375 -103.40625 L 47.78125 -103.40625 C 60.988281 -103.40625 67.59375 -96.367188 67.59375 -82.296875 L 67.59375 -70.3125 C 67.59375 -61.789062 64.554688 -56.359375 58.484375 -54.015625 C 63.816406 -52.097656 66.484375 -47.726562 66.484375 -40.90625 L 66.484375 0 L 44.109375 0 L 44.109375 -39.15625 C 44.109375 -41.28125 43.097656 -42.34375 41.078125 -42.34375 Z M 30.359375 -88.21875 L 30.359375 -58.015625 L 42.1875 -58.015625 C 43.039062 -58.015625 43.757812 -58.332031 44.34375 -58.96875 C 44.9375 -59.601562 45.234375 -60.347656 45.234375 -61.203125 L 45.234375 -85.015625 C 45.234375 -85.867188 44.9375 -86.613281 44.34375 -87.25 C 43.757812 -87.894531 43.039062 -88.21875 42.1875 -88.21875 Z M 30.359375 -88.21875 "/></g></g></g><g fill="#ffffff" fill-opacity="1"><g transform="translate(348.379832, 139.001797)"><g><path d="M 49.0625 -105 C 62.269531 -105 68.875 -97.96875 68.875 -83.90625 L 68.875 0 L 46.5 0 L 46.5 -34.671875 L 30.359375 -34.671875 L 30.359375 0 L 7.984375 0 L 7.984375 -83.90625 C 7.984375 -97.96875 14.59375 -105 27.8125 -105 Z M 30.359375 -51.9375 L 46.5 -51.9375 L 46.5 -86.625 C 46.5 -87.46875 46.207031 -88.207031 45.625 -88.84375 C 45.039062 -89.488281 44.320312 -89.8125 43.46875 -89.8125 L 33.40625 -89.8125 C 32.550781 -89.8125 31.828125 -89.488281 31.234375 -88.84375 C 30.648438 -88.207031 30.359375 -87.46875 30.359375 -86.625 Z M 30.359375 -51.9375 "/></g></g></g><g fill="#ffffff" fill-opacity="1"><g transform="translate(466.957185, 139.001797)"><g><path d="M 46.1875 -103.40625 L 66 -103.40625 L 77.984375 -25.5625 L 86.9375 -103.40625 L 108.671875 -103.40625 L 91.890625 0 L 66.484375 0 L 56.09375 -63.453125 L 45.703125 0 L 20.296875 0 L 3.515625 -103.40625 L 25.25 -103.40625 L 34.203125 -25.5625 Z M 46.1875 -103.40625 "/></g></g></g><g fill="#ffffff" fill-opacity="1"><g transform="translate(621.009332, 139.001797)"><g><path d="M 30.359375 -103.40625 L 30.359375 0 L 7.984375 0 L 7.984375 -103.40625 Z M 30.359375 -103.40625 "/></g></g></g><g fill="#ffffff" fill-opacity="1"><g transform="translate(701.075731, 139.001797)"><g><path d="M 2.078125 -84.375 L 2.078125 -103.40625 L 58.015625 -103.40625 L 58.015625 -84.375 L 41.234375 -84.375 L 41.234375 0 L 18.859375 0 L 18.859375 -84.375 Z M 2.078125 -84.375 "/></g></g></g></g></g><g transform="matrix(1, 0, 0, 1, 515, 1023)"><g clip-path="url(#4ade0a43c0)"><g fill="#ffffff" fill-opacity="1"><g transform="translate(3.514288, 80.080412)"><g><path d="M 40.75 -56.125 L 40.75 -50.171875 L 25.453125 -50.171875 L 25.453125 0 L 18.125 0 L 18.125 -50.171875 L 2.734375 -50.171875 L 2.734375 -56.125 Z M 40.75 -56.125 "/></g></g></g><g fill="#ffffff" fill-opacity="1"><g transform="translate(66.324858, 80.080412)"><g><path d="M 35.75 0 L 22.390625 -22.953125 L 13.53125 -22.953125 L 13.53125 0 L 6.203125 0 L 6.203125 -56.125 L 24.328125 -56.125 C 28.566406 -56.125 32.144531 -55.398438 35.0625 -53.953125 C 37.988281 -52.503906 40.175781 -50.546875 41.625 -48.078125 C 43.082031 -45.609375 43.8125 -42.789062 43.8125 -39.625 C 43.8125 -35.757812 42.695312 -32.347656 40.46875 -29.390625 C 38.238281 -26.441406 34.894531 -24.484375 30.4375 -23.515625 L 44.53125 0 Z M 13.53125 -28.828125 L 24.328125 -28.828125 C 28.296875 -28.828125 31.269531 -29.804688 33.25 -31.765625 C 35.238281 -33.722656 36.234375 -36.34375 36.234375 -39.625 C 36.234375 -42.945312 35.253906 -45.519531 33.296875 -47.34375 C 31.335938 -49.175781 28.347656 -50.09375 24.328125 -50.09375 L 13.53125 -50.09375 Z M 13.53125 -28.828125 "/></g></g></g><g fill="#ffffff" fill-opacity="1"><g transform="translate(134.52984, 80.080412)"><g><path d="M 39.375 -12.484375 L 14.890625 -12.484375 L 10.390625 0 L 2.65625 0 L 22.953125 -55.8125 L 31.40625 -55.8125 L 51.625 0 L 43.890625 0 Z M 37.28125 -18.4375 L 27.140625 -46.78125 L 16.984375 -18.4375 Z M 37.28125 -18.4375 "/></g></g></g><g fill="#ffffff" fill-opacity="1"><g transform="translate(208.048673, 80.080412)"><g><path d="M 3.46875 -28.109375 C 3.46875 -33.578125 4.703125 -38.5 7.171875 -42.875 C 9.640625 -47.257812 13.003906 -50.6875 17.265625 -53.15625 C 21.535156 -55.625 26.273438 -56.859375 31.484375 -56.859375 C 37.609375 -56.859375 42.953125 -55.378906 47.515625 -52.421875 C 52.078125 -49.472656 55.40625 -45.285156 57.5 -39.859375 L 48.71875 -39.859375 C 47.164062 -43.242188 44.925781 -45.847656 42 -47.671875 C 39.070312 -49.492188 35.566406 -50.40625 31.484375 -50.40625 C 27.566406 -50.40625 24.050781 -49.492188 20.9375 -47.671875 C 17.820312 -45.847656 15.378906 -43.257812 13.609375 -39.90625 C 11.835938 -36.550781 10.953125 -32.617188 10.953125 -28.109375 C 10.953125 -23.648438 11.835938 -19.742188 13.609375 -16.390625 C 15.378906 -13.035156 17.820312 -10.441406 20.9375 -8.609375 C 24.050781 -6.785156 27.566406 -5.875 31.484375 -5.875 C 35.566406 -5.875 39.070312 -6.773438 42 -8.578125 C 44.925781 -10.378906 47.164062 -12.96875 48.71875 -16.34375 L 57.5 -16.34375 C 55.40625 -10.976562 52.078125 -6.832031 47.515625 -3.90625 C 42.953125 -0.976562 37.609375 0.484375 31.484375 0.484375 C 26.273438 0.484375 21.535156 -0.734375 17.265625 -3.171875 C 13.003906 -5.617188 9.640625 -9.015625 7.171875 -13.359375 C 4.703125 -17.710938 3.46875 -22.628906 3.46875 -28.109375 Z M 3.46875 -28.109375 "/></g></g></g><g fill="#ffffff" fill-opacity="1"><g transform="translate(289.457808, 80.080412)"><g><path d="M 36.640625 0 L 13.53125 -25.609375 L 13.53125 0 L 6.203125 0 L 6.203125 -56.125 L 13.53125 -56.125 L 13.53125 -30.125 L 36.71875 -56.125 L 45.984375 -56.125 L 20.53125 -28.03125 L 46.21875 0 Z M 36.640625 0 "/></g></g></g><g fill="#ffffff" fill-opacity="1"><g transform="translate(356.938144, 80.080412)"><g><path d="M 13.53125 -50.171875 L 13.53125 -31.40625 L 33.984375 -31.40625 L 33.984375 -25.375 L 13.53125 -25.375 L 13.53125 -6.046875 L 36.40625 -6.046875 L 36.40625 0 L 6.203125 0 L 6.203125 -56.203125 L 36.40625 -56.203125 L 36.40625 -50.171875 Z M 13.53125 -50.171875 "/></g></g></g><g fill="#ffffff" fill-opacity="1"><g transform="translate(417.494334, 80.080412)"><g><path d="M 35.75 0 L 22.390625 -22.953125 L 13.53125 -22.953125 L 13.53125 0 L 6.203125 0 L 6.203125 -56.125 L 24.328125 -56.125 C 28.566406 -56.125 32.144531 -55.398438 35.0625 -53.953125 C 37.988281 -52.503906 40.175781 -50.546875 41.625 -48.078125 C 43.082031 -45.609375 43.8125 -42.789062 43.8125 -39.625 C 43.8125 -35.757812 42.695312 -32.347656 40.46875 -29.390625 C 38.238281 -26.441406 34.894531 -24.484375 30.4375 -23.515625 L 44.53125 0 Z M 13.53125 -28.828125 L 24.328125 -28.828125 C 28.296875 -28.828125 31.269531 -29.804688 33.25 -31.765625 C 35.238281 -33.722656 36.234375 -36.34375 36.234375 -39.625 C 36.234375 -42.945312 35.253906 -45.519531 33.296875 -47.34375 C 31.335938 -49.175781 28.347656 -50.09375 24.328125 -50.09375 L 13.53125 -50.09375 Z M 13.53125 -28.828125 "/></g></g></g></g></g><path fill="#ffffff" d="M 711.421875 431.035156 L 788.570312 431.035156 L 788.570312 565.980469 L 711.421875 565.980469 Z M 711.421875 431.035156 " fill-opacity="1" fill-rule="nonzero"/><g clip-path="url(#05bc023dee)"><path fill="#ffffff" d="M 830.113281 373.242188 L 907.175781 373.242188 L 907.175781 565.980469 L 830.113281 565.980469 Z M 830.113281 373.242188 " fill-opacity="1" fill-rule="nonzero"/></g><g clip-path="url(#4f0d685f59)"><path fill="#49ba86" d="M 776.703125 686.132812 L 711.421875 686.132812 L 711.421875 608.984375 L 907.175781 608.984375 L 907.175781 803.273438 L 830.113281 803.273438 L 830.113281 739.542969 L 766.296875 803.273438 L 592.820312 803.273438 L 592.820312 491.84375 L 669.96875 491.84375 L 669.96875 727.671875 L 733.699219 727.671875 Z M 776.703125 686.132812 " fill-opacity="1" fill-rule="nonzero"/></g></svg>