<svg xmlns="http://www.w3.org/2000/svg" xmlns:xlink="http://www.w3.org/1999/xlink" width="2000" zoomAndPan="magnify" viewBox="0 0 1500 1499.999933" height="2000" preserveAspectRatio="xMidYMid meet" version="1.0"><defs><g/><clipPath id="ba0ce4e0cf"><rect x="0" width="1314" y="0" height="279"/></clipPath><clipPath id="4991c5dd51"><rect x="0" width="797" y="0" height="182"/></clipPath><clipPath id="74cc4ecc68"><path d="M 880 150 L 1006.753906 150 L 1006.753906 465 L 880 465 Z M 880 150 " clip-rule="nonzero"/></clipPath><clipPath id="a562272eb0"><path d="M 493.003906 343 L 1006.753906 343 L 1006.753906 852 L 493.003906 852 Z M 493.003906 343 " clip-rule="nonzero"/></clipPath></defs><g transform="matrix(1, 0, 0, 1, 128, 931)"><g clip-path="url(#ba0ce4e0cf)"><g fill="#ffffff" fill-opacity="1"><g transform="translate(1.360402, 227.004342)"><g><path d="M 106.65625 -124.390625 L 71.96875 -124.390625 L 71.96875 -137.6875 C 71.96875 -139.070312 71.488281 -140.285156 70.53125 -141.328125 C 69.582031 -142.378906 68.410156 -142.90625 67.015625 -142.90625 L 52.671875 -142.90625 C 51.285156 -142.90625 50.113281 -142.378906 49.15625 -141.328125 C 48.195312 -140.285156 47.71875 -139.070312 47.71875 -137.6875 L 47.71875 -107.703125 C 47.71875 -106.304688 48.195312 -105.085938 49.15625 -104.046875 C 50.113281 -103.003906 51.285156 -102.484375 52.671875 -102.484375 L 76.140625 -102.484375 C 97.703125 -102.128906 108.484375 -90.65625 108.484375 -68.0625 L 108.484375 -31.8125 C 108.484375 -8.863281 97.703125 2.609375 76.140625 2.609375 L 45.375 2.609375 C 23.8125 2.609375 13.03125 -8.863281 13.03125 -31.8125 L 13.03125 -49.28125 L 47.71875 -49.28125 L 47.71875 -30.515625 C 47.71875 -29.117188 48.195312 -27.898438 49.15625 -26.859375 C 50.113281 -25.816406 51.285156 -25.296875 52.671875 -25.296875 L 68.84375 -25.296875 C 70.226562 -25.296875 71.398438 -25.816406 72.359375 -26.859375 C 73.316406 -27.898438 73.796875 -29.117188 73.796875 -30.515625 L 73.796875 -63.625 C 73.796875 -65.019531 73.316406 -66.238281 72.359375 -67.28125 C 71.398438 -68.320312 70.226562 -68.84375 68.84375 -68.84375 L 45.375 -68.84375 C 23.8125 -68.84375 13.03125 -80.316406 13.03125 -103.265625 L 13.03125 -136.90625 C 13.03125 -159.851562 23.8125 -171.328125 45.375 -171.328125 L 74.3125 -171.328125 C 95.875 -171.328125 106.65625 -159.851562 106.65625 -136.90625 Z M 106.65625 -124.390625 "/></g></g></g><g fill="#ffffff" fill-opacity="1"><g transform="translate(187.80378, 227.004342)"><g><path d="M 112.390625 -136.90625 L 112.390625 -31.8125 C 112.390625 -8.863281 101.613281 2.609375 80.0625 2.609375 L 45.375 2.609375 C 23.8125 2.609375 13.03125 -8.863281 13.03125 -31.8125 L 13.03125 -136.90625 C 13.03125 -159.851562 23.8125 -171.328125 45.375 -171.328125 L 80.0625 -171.328125 C 101.613281 -171.328125 112.390625 -159.851562 112.390625 -136.90625 Z M 75.875 -27.640625 L 75.875 -141.328125 C 75.875 -142.722656 75.394531 -143.941406 74.4375 -144.984375 C 73.488281 -146.023438 72.316406 -146.546875 70.921875 -146.546875 L 54.5 -146.546875 C 53.101562 -146.546875 51.925781 -146.023438 50.96875 -144.984375 C 50.019531 -143.941406 49.546875 -142.722656 49.546875 -141.328125 L 49.546875 -27.640625 C 49.546875 -26.253906 50.019531 -25.035156 50.96875 -23.984375 C 51.925781 -22.941406 53.101562 -22.421875 54.5 -22.421875 L 70.921875 -22.421875 C 72.316406 -22.421875 73.488281 -22.941406 74.4375 -23.984375 C 75.394531 -25.035156 75.875 -26.253906 75.875 -27.640625 Z M 75.875 -27.640625 "/></g></g></g><g fill="#ffffff" fill-opacity="1"><g transform="translate(381.026408, 227.004342)"><g><path d="M 49.546875 -69.109375 L 49.546875 0 L 13.03125 0 L 13.03125 -168.71875 L 77.96875 -168.71875 C 99.519531 -168.71875 110.296875 -157.242188 110.296875 -134.296875 L 110.296875 -114.734375 C 110.296875 -100.828125 105.34375 -91.960938 95.4375 -88.140625 C 104.132812 -85.003906 108.484375 -77.875 108.484375 -66.75 L 108.484375 0 L 71.96875 0 L 71.96875 -63.890625 C 71.96875 -67.367188 70.316406 -69.109375 67.015625 -69.109375 Z M 49.546875 -143.9375 L 49.546875 -94.65625 L 68.84375 -94.65625 C 70.226562 -94.65625 71.398438 -95.175781 72.359375 -96.21875 C 73.316406 -97.257812 73.796875 -98.476562 73.796875 -99.875 L 73.796875 -138.734375 C 73.796875 -140.117188 73.316406 -141.332031 72.359375 -142.375 C 71.398438 -143.414062 70.226562 -143.9375 68.84375 -143.9375 Z M 49.546875 -143.9375 "/></g></g></g><g fill="#ffffff" fill-opacity="1"><g transform="translate(568.773482, 227.004342)"><g><path d="M 80.0625 -171.328125 C 101.613281 -171.328125 112.390625 -159.851562 112.390625 -136.90625 L 112.390625 0 L 75.875 0 L 75.875 -56.59375 L 49.546875 -56.59375 L 49.546875 0 L 13.03125 0 L 13.03125 -136.90625 C 13.03125 -159.851562 23.8125 -171.328125 45.375 -171.328125 Z M 49.546875 -84.75 L 75.875 -84.75 L 75.875 -141.328125 C 75.875 -142.722656 75.394531 -143.941406 74.4375 -144.984375 C 73.488281 -146.023438 72.316406 -146.546875 70.921875 -146.546875 L 54.5 -146.546875 C 53.101562 -146.546875 51.925781 -146.023438 50.96875 -144.984375 C 50.019531 -143.941406 49.546875 -142.722656 49.546875 -141.328125 Z M 49.546875 -84.75 "/></g></g></g><g fill="#ffffff" fill-opacity="1"><g transform="translate(762.256865, 227.004342)"><g><path d="M 75.359375 -168.71875 L 107.703125 -168.71875 L 127.25 -41.71875 L 141.859375 -168.71875 L 177.328125 -168.71875 L 149.9375 0 L 108.484375 0 L 91.53125 -103.53125 L 74.578125 0 L 33.125 0 L 5.734375 -168.71875 L 41.203125 -168.71875 L 55.796875 -41.71875 Z M 75.359375 -168.71875 "/></g></g></g><g fill="#ffffff" fill-opacity="1"><g transform="translate(1013.624686, 227.004342)"><g><path d="M 49.546875 -168.71875 L 49.546875 0 L 13.03125 0 L 13.03125 -168.71875 Z M 49.546875 -168.71875 "/></g></g></g><g fill="#ffffff" fill-opacity="1"><g transform="translate(1144.269513, 227.004342)"><g><path d="M 3.390625 -137.6875 L 3.390625 -168.71875 L 94.65625 -168.71875 L 94.65625 -137.6875 L 67.28125 -137.6875 L 67.28125 0 L 30.765625 0 L 30.765625 -137.6875 Z M 3.390625 -137.6875 "/></g></g></g></g></g><g transform="matrix(1, 0, 0, 1, 367, 1211)"><g clip-path="url(#4991c5dd51)"><g fill="#ffffff" fill-opacity="1"><g transform="translate(5.283393, 129.883753)"><g><path d="M 66.484375 -91.578125 L 66.484375 -81.859375 L 41.515625 -81.859375 L 41.515625 0 L 29.5625 0 L 29.5625 -81.859375 L 4.46875 -81.859375 L 4.46875 -91.578125 Z M 66.484375 -91.578125 "/></g></g></g><g fill="#ffffff" fill-opacity="1"><g transform="translate(107.771789, 129.883753)"><g><path d="M 58.34375 0 L 36.53125 -37.453125 L 22.078125 -37.453125 L 22.078125 0 L 10.109375 0 L 10.109375 -91.578125 L 39.6875 -91.578125 C 46.601562 -91.578125 52.445312 -90.394531 57.21875 -88.03125 C 61.988281 -85.664062 65.554688 -82.46875 67.921875 -78.4375 C 70.285156 -74.40625 71.46875 -69.804688 71.46875 -64.640625 C 71.46875 -58.335938 69.648438 -52.773438 66.015625 -47.953125 C 62.390625 -43.140625 56.941406 -39.941406 49.671875 -38.359375 L 72.65625 0 Z M 22.078125 -47.03125 L 39.6875 -47.03125 C 46.164062 -47.03125 51.023438 -48.628906 54.265625 -51.828125 C 57.503906 -55.023438 59.125 -59.296875 59.125 -64.640625 C 59.125 -70.078125 57.523438 -74.28125 54.328125 -77.25 C 51.128906 -80.226562 46.25 -81.71875 39.6875 -81.71875 L 22.078125 -81.71875 Z M 22.078125 -47.03125 "/></g></g></g><g fill="#ffffff" fill-opacity="1"><g transform="translate(219.06228, 129.883753)"><g><path d="M 64.25 -20.359375 L 24.3125 -20.359375 L 16.953125 0 L 4.328125 0 L 37.453125 -91.046875 L 51.25 -91.046875 L 84.21875 0 L 71.609375 0 Z M 60.828125 -30.09375 L 44.28125 -76.34375 L 27.71875 -30.09375 Z M 60.828125 -30.09375 "/></g></g></g><g fill="#ffffff" fill-opacity="1"><g transform="translate(339.023416, 129.883753)"><g><path d="M 5.65625 -45.859375 C 5.65625 -54.785156 7.664062 -62.816406 11.6875 -69.953125 C 15.71875 -77.097656 21.210938 -82.6875 28.171875 -86.71875 C 35.140625 -90.75 42.875 -92.765625 51.375 -92.765625 C 61.363281 -92.765625 70.078125 -90.351562 77.515625 -85.53125 C 84.960938 -80.71875 90.394531 -73.882812 93.8125 -65.03125 L 79.484375 -65.03125 C 76.953125 -70.550781 73.296875 -74.800781 68.515625 -77.78125 C 63.742188 -80.757812 58.03125 -82.25 51.375 -82.25 C 44.976562 -82.25 39.238281 -80.757812 34.15625 -77.78125 C 29.082031 -74.800781 25.097656 -70.570312 22.203125 -65.09375 C 19.316406 -59.625 17.875 -53.210938 17.875 -45.859375 C 17.875 -38.585938 19.316406 -32.210938 22.203125 -26.734375 C 25.097656 -21.265625 29.082031 -17.039062 34.15625 -14.0625 C 39.238281 -11.082031 44.976562 -9.59375 51.375 -9.59375 C 58.03125 -9.59375 63.742188 -11.054688 68.515625 -13.984375 C 73.296875 -16.921875 76.953125 -21.148438 79.484375 -26.671875 L 93.8125 -26.671875 C 90.394531 -17.910156 84.960938 -11.144531 77.515625 -6.375 C 70.078125 -1.601562 61.363281 0.78125 51.375 0.78125 C 42.875 0.78125 35.140625 -1.207031 28.171875 -5.1875 C 21.210938 -9.175781 15.71875 -14.71875 11.6875 -21.8125 C 7.664062 -28.90625 5.65625 -36.921875 5.65625 -45.859375 Z M 5.65625 -45.859375 "/></g></g></g><g fill="#ffffff" fill-opacity="1"><g transform="translate(471.859207, 129.883753)"><g><path d="M 59.78125 0 L 22.078125 -41.78125 L 22.078125 0 L 10.109375 0 L 10.109375 -91.578125 L 22.078125 -91.578125 L 22.078125 -49.140625 L 59.921875 -91.578125 L 75.03125 -91.578125 L 33.5 -45.71875 L 75.421875 0 Z M 59.78125 0 "/></g></g></g><g fill="#ffffff" fill-opacity="1"><g transform="translate(581.96729, 129.883753)"><g><path d="M 22.078125 -81.859375 L 22.078125 -51.25 L 55.453125 -51.25 L 55.453125 -41.390625 L 22.078125 -41.390625 L 22.078125 -9.859375 L 59.390625 -9.859375 L 59.390625 0 L 10.109375 0 L 10.109375 -91.703125 L 59.390625 -91.703125 L 59.390625 -81.859375 Z M 22.078125 -81.859375 "/></g></g></g><g fill="#ffffff" fill-opacity="1"><g transform="translate(680.777199, 129.883753)"><g><path d="M 58.34375 0 L 36.53125 -37.453125 L 22.078125 -37.453125 L 22.078125 0 L 10.109375 0 L 10.109375 -91.578125 L 39.6875 -91.578125 C 46.601562 -91.578125 52.445312 -90.394531 57.21875 -88.03125 C 61.988281 -85.664062 65.554688 -82.46875 67.921875 -78.4375 C 70.285156 -74.40625 71.46875 -69.804688 71.46875 -64.640625 C 71.46875 -58.335938 69.648438 -52.773438 66.015625 -47.953125 C 62.390625 -43.140625 56.941406 -39.941406 49.671875 -38.359375 L 72.65625 0 Z M 22.078125 -47.03125 L 39.6875 -47.03125 C 46.164062 -47.03125 51.023438 -48.628906 54.265625 -51.828125 C 57.503906 -55.023438 59.125 -59.296875 59.125 -64.640625 C 59.125 -70.078125 57.523438 -74.28125 54.328125 -77.25 C 51.128906 -80.226562 46.25 -81.71875 39.6875 -81.71875 L 22.078125 -81.71875 Z M 22.078125 -47.03125 "/></g></g></g></g></g><path fill="#ffffff" d="M 687.050781 244.308594 L 812.9375 244.308594 L 812.9375 464.5 L 687.050781 464.5 Z M 687.050781 244.308594 " fill-opacity="1" fill-rule="nonzero"/><g clip-path="url(#74cc4ecc68)"><path fill="#ffffff" d="M 880.71875 150 L 1006.464844 150 L 1006.464844 464.5 L 880.71875 464.5 Z M 880.71875 150 " fill-opacity="1" fill-rule="nonzero"/></g><g clip-path="url(#a562272eb0)"><path fill="#49ba86" d="M 793.570312 660.554688 L 687.050781 660.554688 L 687.050781 534.667969 L 1006.464844 534.667969 L 1006.464844 851.695312 L 880.71875 851.695312 L 880.71875 747.703125 L 776.589844 851.695312 L 493.523438 851.695312 L 493.523438 343.527344 L 619.410156 343.527344 L 619.410156 728.335938 L 723.398438 728.335938 Z M 793.570312 660.554688 " fill-opacity="1" fill-rule="nonzero"/></g></svg>